<svg width="773" height="246" viewBox="0 0 773 246" fill="none" xmlns="http://www.w3.org/2000/svg">
<path d="M2 116C2 153.733 20.8093 195.154 60.5 205.444C71.9255 208.407 82.0041 198.25 90.2222 191.778C101.872 182.604 111.329 171.136 117.389 157.444C131.777 124.937 127.731 81.2121 107.444 52C102.956 45.5373 96.8783 37.6908 88.2222 38C85.4533 38.0989 84.0925 40.0042 82.8889 42.2778C76.7597 53.8552 73.4112 66.8531 70.5556 79.5555C63.1683 112.416 61.8334 144.911 75.7778 176.111C82.7025 191.605 91.1496 207.001 105 217.389C144.797 247.236 172.381 189.692 185.889 161.056C197.993 135.396 200.437 106.827 198.778 78.7778C197.907 64.0599 193.523 45.4316 182.056 35.1111C177.701 31.1916 173.732 32.5243 171.778 37.4444C159.687 67.8791 153.962 101.365 159.167 134.222C162.307 154.043 175.748 170.545 188.778 185C195.801 192.791 205.947 196.374 216.111 198.444C232.995 201.884 252.794 201.62 268 193C288.587 181.328 311.237 158.971 319.889 136.556C322.95 128.625 323.947 121.029 324 112.556C324.084 98.9704 324.912 84.9038 322.778 71.4444C320.786 58.8813 317.3 42.6294 307.5 33.5555C305.79 31.972 292.46 21.135 290.222 25C287.703 29.3506 285.971 34.1993 284.389 38.9444C278.255 57.3455 273.215 76.2252 271.167 95.5555C266.805 136.715 275.595 174.922 299.778 208.778C307.093 219.02 315.376 228.676 326.556 234.833C337.264 240.731 350.091 242.466 362.111 243.444C404.759 246.916 436.418 208.924 456.333 175.556C477.16 140.659 494.113 96.1309 489.389 54.6667C487.431 37.4796 475.747 26.2106 461.222 18.2222C452.154 13.2348 435.818 12.0042 429.556 21.7222C423.934 30.4454 422.279 42.3333 421.444 52.4444C419.767 72.7621 419.892 94.8186 422.667 115C426.837 145.329 436.472 181.68 456.444 205.833C469.58 221.718 488.807 223.048 508.444 221.833C540.004 219.881 561.071 192.244 574.778 166.556C589.434 139.086 604.523 107.931 610.833 77.1667C615.274 55.5164 612.66 33.1705 601 14.2222C594.357 3.42694 588.601 -0.212232 576.778 4.16666C550.306 13.9711 537.762 38.023 532 64.2222C528.495 80.1602 527.297 96.4325 527.056 112.722C526.765 132.304 525.543 152.889 529.611 172.167C535.346 199.347 558.621 212.677 582.556 222.778C617.193 237.395 659.913 228.68 686 201.333C705.809 180.568 723.211 155.779 731.889 128.167C736.538 113.375 738.125 100.511 738 85C737.921 75.2543 736.656 60.457 728.5 53.5555C725.892 51.3485 719.497 48.4735 716 50.2222C714.19 51.1274 713.351 53.4079 712.444 55.0555C709.85 59.7731 706.032 63.5892 703 68C698.873 74.0022 696.19 78.1729 694 85C691.177 93.8006 690.246 103.158 687.5 111.944C686.135 116.313 686.392 109.756 685.222 106.778C680.687 95.2339 670.729 86.9049 660 82C635.272 70.6959 638.336 119.504 646 131C656.28 146.421 671.126 162.533 685.778 174C693.715 180.212 704.276 184.95 713.5 189C719.564 191.662 725.564 194.613 732 196.222C738.61 197.875 745.181 198 751.944 198C757.779 198 761.103 193.897 765 190C769.236 185.764 771 178.609 771 173" stroke="black" stroke-width="3" stroke-linecap="round"/>
</svg>
